<?xml version="1.0" encoding="UTF-8"?>
<!DOCTYPE svg PUBLIC "-//W3C//DTD SVG 1.1//EN" "http://www.w3.org/Graphics/SVG/1.1/DTD/svg11.dtd">
<svg xmlns="http://www.w3.org/2000/svg" version="1.1" width="1440px" height="1000px" style="shape-rendering:geometricPrecision; text-rendering:geometricPrecision; image-rendering:optimizeQuality; fill-rule:evenodd; clip-rule:evenodd" xmlns:xlink="http://www.w3.org/1999/xlink">
<g><path style="opacity:0.998" fill="#f9b03d" d="M 446.5,30.5 C 465.957,28.7074 482.79,34.3741 497,47.5C 502.512,54.869 505.346,63.2024 505.5,72.5C 502.359,95.7525 501.526,119.086 503,142.5C 500.096,157.71 490.929,164.21 475.5,162C 465.259,157.88 455.259,153.213 445.5,148C 435.408,144.522 425.074,143.356 414.5,144.5C 407.355,144.12 400.355,142.953 393.5,141C 381.068,132.9 370.235,123.067 361,111.5C 354.612,101.136 353.946,90.4694 359,79.5C 361.921,75.9084 365.421,73.0751 369.5,71C 378.654,67.7115 387.987,65.0448 397.5,63C 402.739,61.5872 407.739,59.5872 412.5,57C 420.492,50.3405 428.159,43.3405 435.5,36C 438.99,33.588 442.657,31.7547 446.5,30.5 Z"/></g>
<g><path style="opacity:0.999" fill="#6b9abd" d="M 1439.5,203.5 C 1439.5,349.5 1439.5,495.5 1439.5,641.5C 1408.59,632.963 1381.09,618.296 1357,597.5C 1345.59,583.677 1337.59,568.011 1333,550.5C 1328.31,529.755 1323.31,509.088 1318,488.5C 1310.93,465.133 1299.27,444.467 1283,426.5C 1267.33,410.167 1251.67,393.833 1236,377.5C 1226.61,367.045 1217.94,356.045 1210,344.5C 1199.71,328.339 1195.21,310.673 1196.5,291.5C 1202.01,264.663 1216.34,243.83 1239.5,229C 1264.02,214.604 1290.35,204.937 1318.5,200C 1338.87,196.28 1359.04,193.446 1379,191.5C 1400.26,189.407 1420.42,193.407 1439.5,203.5 Z"/></g>
<g><path style="opacity:0.996" fill="#f7f9fa" d="M 1196.5,291.5 C 1195.21,310.673 1199.71,328.339 1210,344.5C 1217.94,356.045 1226.61,367.045 1236,377.5C 1251.67,393.833 1267.33,410.167 1283,426.5C 1299.27,444.467 1310.93,465.133 1318,488.5C 1323.31,509.088 1328.31,529.755 1333,550.5C 1337.59,568.011 1345.59,583.677 1357,597.5C 1381.09,618.296 1408.59,632.963 1439.5,641.5C 1439.5,650.167 1439.5,658.833 1439.5,667.5C 1409.02,660.589 1381.35,647.756 1356.5,629C 1342.23,616.38 1332.4,600.88 1327,582.5C 1321,558.505 1315,534.505 1309,510.5C 1302.79,491.413 1293.46,474.079 1281,458.5C 1262.07,436.897 1242.4,415.897 1222,395.5C 1208.12,381.083 1197.79,364.416 1191,345.5C 1185.77,326.699 1187.6,308.699 1196.5,291.5 Z"/></g>
<g><path style="opacity:0.999" fill="#754d24" d="M -0.5,545.5 C 11.3336,548.7 23.3336,551.2 35.5,553C 62.191,555.446 88.8577,558.113 115.5,561C 136.031,563.108 154.365,570.441 170.5,583C 190.033,603.631 196.2,627.798 189,655.5C 181.323,677.481 170.657,697.814 157,716.5C 140.681,737.801 125.348,759.801 111,782.5C 96.2352,813.133 80.9019,843.466 65,873.5C 53.9104,891.588 39.7438,906.755 22.5,919C 15.2581,923.29 7.59148,926.457 -0.5,928.5C -0.5,800.833 -0.5,673.167 -0.5,545.5 Z"/></g>
</svg>
